<?xml version="1.0" encoding="utf-8"?>
<!-- Generator: Adobe Illustrator 27.2.0, SVG Export Plug-In . SVG Version: 6.00 Build 0)  -->
<svg version="1.1" id="Слой_1" xmlns="http://www.w3.org/2000/svg" x="0px"
     y="0px"
     viewBox="0 0 15 15" style="enable-background:new 0 0 15 15;" xml:space="preserve">
<style type="text/css">
	.st0{fill:#FFFF00;}
	.st1{fill:#FFFF00;stroke:#000000;stroke-width:0.25;stroke-miterlimit:10;}
	.st2{fill:#F15A24;stroke:#FCEE21;stroke-width:0.25;stroke-miterlimit:10;}
</style>
  <g>
	<g>
		<circle class="st0" cx="6" cy="9" r="3.5"/>
    <path
        d="M6,6c1.7,0,3,1.3,3,3s-1.3,3-3,3s-3-1.3-3-3S4.3,6,6,6 M6,5C3.8,5,2,6.8,2,9s1.8,4,4,4s4-1.8,4-4S8.2,5,6,5L6,5z"/>
	</g>
    <g>
		<rect x="8.1" y="5.1" transform="matrix(0.6596 -0.7516 0.7516 0.6596 -1.0592 8.5998)" class="st0" width="1.8"
          height="0.7"/>
      <path d="M9.3,4.7l0.2,0.1L9.7,5l-1,1.2L8.3,5.9L9.3,4.7 M9.3,4.4L7.9,5.9l0.8,0.7L10,5L9.6,4.7L9.3,4.4L9.3,4.4z"/>
	</g>
    <path class="st1" d="M10,3C9.7,5,9.6,4.7,9.6,4.7"/>
</g>
  <polygon class="st2" points="10.1,1.4 10.4,1.9 10.9,1.8 10.5,2.4 10.6,2.9 10.1,2.8 9.7,3.3 9.7,2.6 9.4,2.3 9.9,2.1 "/>
</svg>
